PathFileType	4	(X/Y/Z)	/Users/itak/Documents/Research/Walk-IL/dataset/trc/00433_00167.trc
DataRate	CameraRate	NumFrames	NumMarkers	Units	OrigDataRate	OrigDataStartFrame	OrigNumFrames
100.000000	100.000000	4	53	mm	100.000000	461	615
Frame#	Time	RPSI			LPSI			L3			STRN			T10			C7			CLAV			RBAK			LBAK			LSHO			LUPA			LAEL			LAOL			LWTS			LWPS			LFRA			LIFD			LHPS			LHTS			RSHO			RUPA			RAEL			RAOL			RWTS			RWPS			RFRA			RIFD			RHTS			RHPS			RBHD			LFHD			RFHD			LBHD			LHIP			RHIP			RASI			LASI			LKNE			LTHI			LANK			LTIP			LTOE			LMT1			LMT5			LHEE			RKNE			RTHI			RANK			RTIP			RTOE			RMT1			RMT5			RHEE			
		X1	Y1	Z1	X2	Y2	Z2	X3	Y3	Z3	X4	Y4	Z4	X5	Y5	Z5	X6	Y6	Z6	X7	Y7	Z7	X8	Y8	Z8	X9	Y9	Z9	X10	Y10	Z10	X11	Y11	Z11	X12	Y12	Z12	X13	Y13	Z13	X14	Y14	Z14	X15	Y15	Z15	X16	Y16	Z16	X17	Y17	Z17	X18	Y18	Z18	X19	Y19	Z19	X20	Y20	Z20	X21	Y21	Z21	X22	Y22	Z22	X23	Y23	Z23	X24	Y24	Z24	X25	Y25	Z25	X26	Y26	Z26	X27	Y27	Z27	X28	Y28	Z28	X29	Y29	Z29	X30	Y30	Z30	X31	Y31	Z31	X32	Y32	Z32	X33	Y33	Z33	X34	Y34	Z34	X35	Y35	Z35	X36	Y36	Z36	X37	Y37	Z37	X38	Y38	Z38	X39	Y39	Z39	X40	Y40	Z40	X41	Y41	Z41	X42	Y42	Z42	X43	Y43	Z43	X44	Y44	Z44	X45	Y45	Z45	X46	Y46	Z46	X47	Y47	Z47	X48	Y48	Z48	X49	Y49	Z49	X50	Y50	Z50	X51	Y51	Z51	X52	Y52	Z52	X53	Y53	Z53	

462	4.61	904.7342529296875	900.531005859375	760.01708984375	1008.261596679688	880.682861328125	665.2037353515625	935.663330078125	985.4278564453125	732.7401123046875	1147.30517578125	1185.56982421875	905.0342407226562	920.596923828125	1110.526245117188	721.5697021484375	962.7166137695312	1378.567016601562	774.298583984375	1120.08251953125	1298.013305664062	873.474365234375	855.3216552734375	1260.815551757812	809.9494018554688	994.0546264648438	1330.623657226562	677.8658447265625	1124.056030273438	1348.181396484375	670.3453979492188	1150.41015625	1230.011840820312	575.517822265625	1146.895385742188	1016.599243164062	538.1432495117188	1046.263793945312	1017.736389160156	564.9373168945312	1150.637939453125	795.8501586914062	581.8046875	1134.373168945312	797.3655395507812	509.4624633789062	1150.677368164062	926.9155883789062	525.9796752929688	1100.951904296875	635.7861328125	551.447021484375	1113.59130859375	718.4576416015625	500.5050354003906	1139.151977539062	704.9315185546875	565.4069213867188	920.015625	1351.5244140625	944.5062255859375	856.326171875	1290.987670898438	992.4921875	807.5426635742188	1003.844299316406	1021.738220214844	790.0263671875	996.3702392578125	956.89306640625	882.9441528320312	786.1642456054688	1026.144409179688	795.8897094726562	784.4165649414062	1031.324829101562	796.6143188476562	946.0812377929688	1026.046997070312	853.3541870117188	630.316650390625	1010.033630371094	870.5449829101562	685.1915283203125	1030.138793945312	795.5990600585938	695.1864624023438	1027.129760742188	992.2991943359375	1582.489135742188	884.1657104492188	1188.479370117188	1584.871704101562	819.251220703125	1121.871948242188	1595.678344726562	930.487548828125	1069.170043945312	1573.081298828125	724.3368530273438	1197.454223632812	795.5543212890625	700.63427734375	863.1378173828125	807.9763793945312	940.7373046875	983.5986938476562	836.4073486328125	980.3717041015625	1184.728759765625	842.0596313476562	822.8021850585938	1330.8662109375	427.8132019042969	854.7813720703125	1299.889038085938	571.3836059570312	808.8226928710938	1406.293334960938	22.46670532226562	890.2359008789062	1380.020629882812	280.3129577636719	876.905029296875	1507.97607421875	86.41513824462891	1088.822387695312	1438.583374023438	63.72274780273438	1060.725830078125	1510.980224609375	64.13402557373047	978.5153198242188	1334.1337890625	16.75664520263672	887.7315063476562	820.6250610351562	427.8066711425781	873.7387084960938	889.6605224609375	669.3685913085938	962.9592895507812	609.7991333007812	86.87239074707031	699.4440307617188	750.2715454101562	302.5000305175781	830.1314697265625	813.2254028320312	35.89579391479492	736.22802734375	772.2367553710938	50.21279525756836	686.9299926757812	705.5291748046875	39.87317657470703	769.7572021484375	577.638916015625	121.8813934326172	631.7100830078125	
463	4.62	915.235595703125	899.9274291992188	764.72705078125	1018.606628417969	880.8561401367188	669.5490112304688	947.1273193359375	985.1570434570312	737.8435668945312	1158.598266601562	1185.195922851562	909.721923828125	931.9337158203125	1110.045776367188	726.0916137695312	974.2271728515625	1378.180053710938	778.0277099609375	1131.414306640625	1297.613525390625	878.128173828125	866.8684692382812	1260.306518554688	813.3564453125	1005.950134277344	1330.18115234375	681.7565307617188	1136.041259765625	1347.633056640625	674.8164672851562	1162.639282226562	1229.21240234375	580.2452392578125	1158.847534179688	1015.823181152344	542.9563598632812	1058.023803710938	1017.315246582031	568.9910888671875	1160.996948242188	794.920654296875	586.4208984375	1145.512573242188	796.6651611328125	513.9406127929688	1162.30712890625	926.1387329101562	530.7552490234375	1110.193237304688	635.273681640625	555.466552734375	1124.10986328125	717.8881225585938	504.7135009765625	1148.90283203125	704.0951538085938	569.864501953125	930.8471069335938	1351.256103515625	948.1981811523438	866.4319458007812	1290.870849609375	995.3220825195312	814.6184692382812	1004.365112304688	1023.051940917969	798.0302124023438	997.2967529296875	958.024169921875	887.5428466796875	785.8485107421875	1027.701049804688	800.4606323242188	785.1138916015625	1031.70654296875	803.02734375	946.7288208007812	1027.042114257812	856.36865234375	630.4188232421875	1010.573364257812	873.9736938476562	685.0535888671875	1031.143310546875	799.1458740234375	695.8148803710938	1027.121215820312	1002.377197265625	1582.371215820312	887.1693725585938	1198.759155273438	1585.376220703125	822.8374633789062	1131.73046875	1596.339477539062	933.8160400390625	1079.808349609375	1572.59326171875	727.6079711914062	1208.037231445312	795.6106567382812	705.1644287109375	873.60400390625	806.9534301757812	945.1900634765625	994.235595703125	835.3993530273438	984.7535400390625	1195.259033203125	841.8444213867188	827.2406616210938	1340.9326171875	427.9415588378906	861.3344116210938	1310.795166015625	571.4300537109375	814.5072021484375	1407.879028320312	21.72329902648926	891.42041015625	1387.536254882812	279.1744079589844	882.3775024414062	1511.420532226562	77.10183715820312	1092.356323242188	1441.088500976562	58.0250129699707	1063.132690429688	1513.82470703125	57.71852111816406	981.1016235351562	1335.509887695312	18.38393783569336	888.5026245117188	828.7713623046875	427.6850891113281	878.8638916015625	900.48828125	668.3151245117188	967.8436889648438	611.9827270507812	90.76959991455078	702.0014038085938	756.4520874023438	304.0233764648438	834.6769409179688	813.1025390625	35.98855209350586	736.0821533203125	772.9837036132812	50.61222839355469	687.574462890625	706.3226928710938	39.75598526000977	770.3375854492188	580.9747314453125	128.2493438720703	635.2265014648438	
464	4.63	925.4959716796875	899.5230712890625	769.5655517578125	1028.571655273438	881.4010009765625	673.8797607421875	958.4176635742188	985.3130493164062	743.0039672851562	1169.940673828125	1185.074462890625	914.3169555664062	943.0457763671875	1109.970458984375	730.6843872070312	985.728759765625	1378.12646484375	781.898193359375	1142.768798828125	1297.478637695312	882.7566528320312	878.4088745117188	1260.188232421875	816.960693359375	1017.79638671875	1330.111572265625	685.7237548828125	1147.983764648438	1347.412719726562	679.3281860351562	1174.923461914062	1228.737060546875	585.0677490234375	1171.120361328125	1015.373596191406	547.896728515625	1070.091674804688	1017.108215332031	573.0640258789062	1171.932373046875	794.3548583984375	591.2367553710938	1157.301879882812	796.2728271484375	518.606201171875	1174.375732421875	925.6888427734375	535.6896362304688	1120.35205078125	635.0282592773438	559.6630249023438	1135.447021484375	717.593505859375	509.1018371582031	1159.408325195312	703.6008911132812	574.527587890625	941.8499755859375	1351.264404296875	952.0796508789062	876.7823486328125	1291.0908203125	998.4547729492188	821.8742065429688	1005.2265625	1024.505249023438	806.244140625	998.5340576171875	959.271240234375	892.4046020507812	785.9739379882812	1029.55908203125	805.3177490234375	786.180419921875	1032.233276367188	809.6494140625	947.7132568359375	1028.163818359375	859.8707885742188	630.9644165039062	1011.661682128906	877.7483520507812	685.3681640625	1032.590942382812	803.0846557617188	696.8264770507812	1027.4013671875	1012.5283203125	1582.491455078125	890.2597045898438	1209.089599609375	1586.12548828125	826.4754028320312	1141.654663085938	1597.239868164062	937.1909790039062	1090.484252929688	1572.348876953125	730.9701538085938	1218.355346679688	796.1209716796875	709.4385986328125	884.1868286132812	805.9746704101562	949.7188110351562	1005.041809082031	834.5851440429688	989.0361328125	1205.72705078125	842.091064453125	831.3953857421875	1351.078979492188	428.5808715820312	867.8711547851562	1321.788208007812	572.0755615234375	820.0654296875	1409.136474609375	21.32299995422363	892.4141845703125	1394.97021484375	278.481201171875	887.676025390625	1514.239135742188	68.2281494140625	1095.504272460938	1443.108642578125	52.81121063232422	1065.210205078125	1516.267944335938	51.89749145507812	983.3621826171875	1336.640991210938	20.07591247558594	889.1162109375	837.4141235351562	427.5588684082031	884.3661499023438	911.4300537109375	667.3058471679688	972.8049926757812	614.5989990234375	94.96212005615234	704.80322265625	763.1265869140625	305.6545104980469	839.590087890625	812.9537353515625	36.06717300415039	735.8867797851562	773.8787841796875	51.03525924682617	688.2261962890625	707.2559204101562	39.66549682617188	770.9560546875	584.9664306640625	134.9779357910156	639.1008911132812	
465	4.64	935.5144653320312	899.3554077148438	774.509765625	1038.1748046875	882.28076171875	678.1987915039062	969.48046875	985.887451171875	748.1602172851562	1181.274047851562	1185.221435546875	918.7930297851562	953.9051513671875	1110.307006835938	735.3095092773438	997.16455078125	1378.409423828125	785.8974609375	1154.088012695312	1297.625244140625	887.3294067382812	889.8839111328125	1260.485717773438	820.7677612304688	1029.530883789062	1330.41455078125	689.7583618164062	1159.818115234375	1347.548217773438	683.8616943359375	1187.21728515625	1228.63134765625	589.9595947265625	1183.677856445312	1015.288513183594	552.9572143554688	1082.437377929688	1017.142944335938	577.1625366210938	1183.463012695312	794.18359375	596.251953125	1169.732421875	796.2181396484375	523.463623046875	1186.860107421875	925.6033935546875	540.7783203125	1131.4521484375	635.06982421875	564.0404052734375	1147.59912109375	717.598388671875	513.6781005859375	1170.688842773438	703.4708251953125	579.3948974609375	952.9889526367188	1351.567260742188	956.142333984375	887.3464965820312	1291.67236328125	1001.900451660156	829.3342895507812	1006.441711425781	1026.131469726562	814.6710815429688	1000.098510742188	960.6646728515625	897.5521240234375	786.5344848632812	1031.721923828125	810.480712890625	787.6146240234375	1032.933837890625	816.5020141601562	949.04638671875	1029.447021484375	863.8648071289062	631.94775390625	1013.284240722656	881.8797607421875	686.1195068359375	1034.463500976562	807.4315795898438	698.2310791015625	1027.979248046875	1022.723083496094	1582.8408203125	893.4374389648438	1219.440795898438	1587.09765625	830.1649780273438	1151.621459960938	1598.35791015625	940.6148071289062	1101.166137695312	1572.345703125	734.4237060546875	1228.400390625	797.0272216796875	713.4666137695312	894.8685302734375	805.1034545898438	954.3130493164062	1015.990600585938	834.013916015625	993.2085571289062	1216.128173828125	842.7776489257812	835.268310546875	1361.212768554688	429.6173400878906	874.3062744140625	1332.787231445312	573.2330932617188	825.4569091796875	1410.132202148438	21.19888496398926	893.239990234375	1402.261352539062	278.1399841308594	892.7281494140625	1516.44970703125	60.04591751098633	1098.220825195312	1444.689453125	48.19942092895508	1066.952758789062	1518.352294921875	46.81686401367188	985.2781982421875	1337.585083007812	21.69930458068848	889.6124267578125	846.542236328125	427.4622192382812	890.284423828125	922.469482421875	666.4039916992188	977.83251953125	617.7060546875	99.47714996337891	707.8853759765625	770.2879638671875	307.4091186523438	844.9086303710938	812.7997436523438	36.10334777832031	735.6492919921875	774.937744140625	51.50908660888672	688.914306640625	708.354736328125	39.62692642211914	771.64306640625	589.6734008789062	142.0776214599609	643.3705444335938	
